<?xml version="1.0" standalone="no"?>
<!DOCTYPE svg PUBLIC "-//W3C//DTD SVG 20010904//EN"
 "http://www.w3.org/TR/2001/REC-SVG-20010904/DTD/svg10.dtd">
<svg version="1.0" xmlns="http://www.w3.org/2000/svg"
 width="3000.000000pt" height="1590.000000pt" viewBox="0 0 3000.000000 1590.000000"
 preserveAspectRatio="xMidYMid meet">

<g transform="translate(0.000000,1590.000000) scale(0.100000,-0.100000)"
fill="#000000" stroke="none">
<path d="M4215 15219 c-27 -5 -79 -14 -115 -20 -69 -12 -97 -20 -225 -67 -140
-51 -247 -107 -355 -184 -200 -143 -312 -262 -579 -614 -368 -483 -534 -655
-776 -804 -38 -24 -97 -60 -130 -81 -33 -21 -91 -50 -130 -65 -80 -31 -100
-46 -92 -68 7 -18 65 -56 85 -56 6 0 12 9 12 19 0 26 27 45 190 134 198 109
425 300 559 470 14 19 63 81 109 138 45 57 116 147 157 199 289 370 366 457
514 587 46 40 113 93 150 117 152 100 366 190 516 216 39 7 92 16 118 21 164
31 428 -18 552 -101 22 -15 58 -37 80 -48 51 -26 145 -122 183 -187 33 -58 77
-163 100 -244 20 -66 23 -363 5 -421 -6 -19 -16 -62 -23 -95 -28 -139 -91
-293 -187 -461 l-52 -90 13 -50 c15 -53 94 -251 131 -324 12 -25 33 -74 45
-110 13 -35 46 -109 75 -165 29 -55 56 -111 60 -124 l7 -24 -83 7 c-220 17
-294 17 -470 2 -208 -17 -305 -35 -570 -101 -101 -26 -211 -53 -244 -61 -33
-8 -94 -27 -135 -43 -41 -16 -102 -39 -135 -50 -33 -12 -69 -25 -80 -30 -11
-5 -49 -19 -85 -31 -60 -21 -146 -61 -501 -234 -134 -65 -159 -74 -159 -58 0
31 259 220 486 355 84 50 236 118 454 203 36 14 73 30 82 35 10 5 24 9 31 9
14 0 126 34 162 49 11 5 40 14 65 21 25 7 56 16 70 20 71 22 133 36 220 51
193 34 251 42 392 53 86 8 161 17 168 21 23 14 -4 99 -81 259 -42 89 -85 168
-93 175 -30 25 -233 36 -414 22 -187 -14 -418 -50 -520 -80 -67 -20 -250 -75
-307 -92 -133 -39 -182 -57 -313 -119 -156 -73 -246 -121 -372 -200 -95 -59
-160 -93 -167 -86 -9 9 75 112 139 171 151 140 313 252 509 352 129 66 173 86
249 113 19 7 53 20 75 30 22 9 58 23 80 30 22 7 49 16 60 21 58 23 169 51 310
79 60 12 115 26 122 32 9 7 11 32 7 87 -6 89 -10 106 -80 317 -30 89 -54 167
-54 173 0 24 33 9 75 -35 52 -55 96 -138 159 -299 82 -209 82 -210 106 -210
18 0 32 19 70 94 80 158 84 171 90 396 l5 200 28 -60 c76 -161 103 -344 73
-489 -28 -133 -14 -166 40 -92 43 58 133 249 150 316 30 121 9 286 -54 421
-48 106 -151 220 -239 267 -97 51 -202 74 -313 69 -52 -3 -114 -10 -137 -16
-24 -6 -60 -15 -80 -19 -104 -23 -280 -127 -464 -273 -57 -46 -237 -216 -399
-379 -285 -286 -460 -447 -585 -541 -60 -45 -74 -55 -195 -126 -80 -48 -212
-105 -327 -142 -110 -35 -124 -57 -30 -47 91 9 274 72 380 129 109 60 291 195
422 315 55 50 229 220 386 379 285 288 359 355 519 469 125 89 228 140 330
164 30 7 68 16 84 21 57 17 177 10 257 -15 106 -34 148 -57 216 -120 72 -67
118 -143 155 -253 36 -110 40 -266 8 -352 -19 -53 -35 -79 -44 -70 -2 2 -9 55
-16 118 -13 137 -31 192 -106 323 -57 100 -94 135 -129 121 -15 -5 -16 -16
-11 -67 15 -158 18 -341 7 -409 -12 -73 -70 -237 -82 -237 -4 0 -11 15 -14 33
-4 17 -19 55 -33 82 -14 28 -37 85 -53 127 -40 112 -137 234 -225 283 -67 38
-121 44 -117 15 0 -8 28 -91 60 -185 78 -225 105 -321 107 -386 l1 -54 -50
-11 c-27 -6 -84 -17 -125 -24 -41 -8 -109 -26 -150 -42 -41 -15 -78 -28 -82
-28 -4 0 -37 -13 -73 -30 -36 -16 -71 -30 -78 -30 -26 0 -153 -52 -269 -111
-257 -129 -419 -243 -594 -415 -134 -132 -178 -206 -142 -242 20 -20 50 -13
128 29 124 67 452 240 500 265 43 21 129 51 435 148 170 54 195 61 310 81 50
9 124 22 165 30 104 19 340 37 403 31 29 -3 78 -8 109 -11 l57 -6 51 -85 c72
-118 125 -235 111 -244 -7 -3 -37 -8 -69 -9 -64 -3 -225 -24 -352 -47 -174
-31 -197 -35 -280 -55 -153 -36 -175 -42 -185 -50 -5 -4 -71 -26 -145 -49 -74
-23 -164 -59 -200 -78 -36 -20 -99 -50 -140 -68 -276 -114 -509 -269 -728
-484 -78 -75 -84 -94 -41 -119 23 -13 30 -11 91 18 36 17 74 31 84 31 9 0 60
23 113 52 124 67 204 106 266 130 27 11 59 25 70 32 11 7 56 26 100 43 44 17
127 49 185 72 111 43 284 91 590 165 322 77 443 90 797 88 312 -1 310 -1 300
62 -3 19 -64 167 -136 330 -167 378 -176 405 -160 465 6 25 36 89 65 141 85
154 131 295 163 495 37 237 37 229 0 415 -24 125 -30 142 -72 226 -40 79 -120
177 -194 237 -46 37 -211 125 -263 141 -171 51 -331 67 -455 45z"/>
<path d="M2005 13890 c-27 -4 -86 -19 -130 -33 -44 -15 -96 -32 -115 -38 -19
-7 -73 -30 -120 -53 -68 -33 -102 -59 -175 -131 -78 -76 -99 -104 -138 -185
-41 -82 -48 -107 -56 -186 -14 -148 5 -247 72 -386 46 -95 65 -123 116 -171
179 -165 396 -215 703 -161 l37 6 34 -68 c18 -38 53 -118 77 -179 48 -122 102
-215 124 -215 8 0 43 24 77 53 262 222 510 382 779 503 69 30 174 80 234 111
60 30 139 66 174 79 75 27 87 36 79 58 -12 31 -50 35 -203 20 -199 -19 -334
-48 -439 -94 -22 -9 -69 -27 -105 -40 -90 -31 -203 -86 -354 -174 -70 -41
-133 -72 -140 -70 -6 3 -50 86 -98 184 -59 120 -94 181 -107 185 -11 3 -57 -5
-103 -19 -107 -32 -195 -40 -293 -27 -117 15 -148 27 -218 80 -78 60 -132 137
-153 221 -31 123 1 215 116 331 76 77 129 109 250 155 49 18 104 39 122 48
103 47 168 73 208 85 97 28 115 48 84 95 -16 26 -17 26 -153 25 -75 -1 -158
-5 -186 -9z m218 -49 c4 -4 -5 -13 -20 -19 -15 -6 -76 -29 -135 -51 -58 -23
-109 -41 -112 -41 -3 0 -35 -14 -72 -30 -155 -72 -311 -208 -361 -317 -24 -50
-27 -70 -26 -148 2 -192 102 -334 286 -406 79 -31 88 -32 227 -33 135 0 150 2
211 27 36 15 68 27 71 27 12 0 91 -145 133 -242 24 -55 54 -112 67 -125 29
-31 50 -26 143 31 185 114 447 232 635 286 41 11 89 25 105 30 34 10 243 25
235 17 -3 -3 -43 -22 -90 -42 -47 -21 -109 -48 -138 -61 -29 -13 -55 -24 -58
-24 -4 0 -92 -42 -198 -94 -237 -117 -385 -213 -576 -375 -46 -39 -91 -71
-100 -71 -16 0 -95 161 -161 330 l-37 95 -58 -2 c-33 0 -118 -4 -189 -8 -161
-9 -253 7 -371 65 -144 71 -246 213 -289 403 -22 96 -16 257 11 327 21 54 84
152 128 198 61 66 252 182 298 182 8 0 18 4 23 8 6 5 30 14 55 21 25 8 56 17
70 21 57 18 107 30 135 34 42 6 147 -2 158 -13z"/>
<path d="M29261 12569 c-137 -35 -308 -138 -442 -265 -61 -57 -191 -203 -260
-290 -69 -87 -260 -363 -288 -414 -13 -25 -34 -58 -45 -75 -39 -53 -123 -202
-226 -400 -165 -317 -258 -507 -355 -725 -26 -58 -53 -118 -61 -135 -7 -16
-25 -61 -39 -100 -14 -38 -37 -92 -50 -120 -13 -27 -39 -90 -58 -140 -69 -177
-80 -194 -194 -310 -229 -235 -390 -356 -663 -503 -133 -72 -338 -151 -450
-174 -121 -25 -253 -22 -321 9 -110 49 -184 154 -182 258 2 129 88 357 194
515 60 89 238 299 329 389 271 266 598 461 774 461 32 0 38 -4 57 -42 16 -32
20 -52 15 -86 -20 -146 -154 -299 -431 -493 -135 -94 -394 -228 -489 -254 -95
-25 -190 -60 -194 -72 -2 -7 16 -22 39 -34 41 -20 47 -21 114 -9 38 7 122 30
185 50 63 20 135 43 160 50 63 19 279 131 376 195 162 108 305 249 360 358 14
27 34 82 44 123 31 120 6 216 -79 307 -113 120 -294 122 -571 4 -324 -137
-749 -459 -966 -733 -157 -198 -503 -561 -659 -693 -138 -116 -334 -240 -404
-256 -61 -13 -155 61 -179 144 -44 147 44 434 284 919 141 287 224 471 224
501 0 21 -40 59 -104 100 -64 40 -131 43 -163 9 -53 -58 -127 -201 -170 -328
-73 -214 -317 -534 -698 -915 -186 -187 -343 -311 -499 -396 -81 -44 -107 -47
-154 -19 -53 33 -72 74 -72 160 0 226 217 641 576 1100 129 165 224 298 239
334 15 34 14 36 -16 70 -17 20 -47 40 -67 46 -22 6 -189 10 -416 10 -330 0
-377 2 -372 15 3 8 32 54 64 102 123 183 232 382 247 450 6 28 3 34 -18 44
-20 9 -35 6 -91 -20 -96 -43 -224 -123 -306 -190 -92 -75 -213 -215 -279 -324
-53 -86 -53 -88 -35 -108 17 -19 43 -33 112 -59 50 -19 49 -22 -76 -230 -113
-190 -188 -301 -364 -544 -114 -155 -141 -199 -131 -214 17 -28 41 -38 61 -26
22 14 233 293 411 544 44 63 100 140 124 170 23 30 73 98 110 151 87 125 84
123 149 110 29 -6 87 -16 128 -21 118 -17 201 -45 248 -86 44 -38 72 -80 72
-111 0 -17 -173 -226 -361 -435 -219 -244 -379 -564 -379 -757 0 -232 152
-391 360 -378 80 4 194 42 305 99 206 107 530 401 794 722 63 76 107 122 109
113 2 -8 -9 -44 -24 -78 -147 -350 -169 -541 -80 -694 31 -52 70 -84 146 -119
112 -52 262 -31 453 65 163 82 411 290 595 499 93 105 109 117 97 74 -40 -159
-41 -224 -4 -332 42 -121 127 -216 249 -275 106 -52 177 -69 318 -74 123 -5
363 18 388 38 5 4 35 15 65 23 134 35 280 107 469 232 128 84 223 163 390 323
77 73 140 127 140 119 0 -8 -6 -37 -14 -64 -30 -105 -38 -188 -26 -271 18
-116 44 -175 108 -244 58 -63 99 -89 191 -120 150 -52 349 1 561 150 270 189
612 544 780 809 28 45 32 58 24 80 -13 39 -47 40 -70 4 -11 -17 -88 -109 -172
-205 -185 -212 -376 -389 -572 -532 -88 -63 -272 -161 -324 -170 -67 -13 -179
63 -220 150 -24 50 -45 139 -45 190 -1 86 36 248 87 380 29 76 57 108 170 196
325 254 991 930 1285 1303 322 411 526 721 609 929 28 71 32 94 32 167 0 101
-15 139 -75 205 -97 105 -246 139 -418 94z m278 -175 c29 -24 31 -31 31 -90 0
-110 -47 -217 -224 -504 -363 -592 -889 -1232 -1314 -1601 -41 -35 -106 -92
-145 -126 -40 -35 -84 -72 -99 -83 l-28 -21 0 20 c0 28 40 131 83 216 20 39
79 162 132 275 95 202 232 471 265 520 9 14 43 72 75 130 140 251 325 531 483
730 98 123 358 383 446 445 163 115 237 138 295 89z"/>
<path d="M15025 12558 c-161 -13 -407 -52 -540 -85 -63 -15 -110 -27 -172 -42
-258 -62 -589 -210 -883 -396 -91 -57 -308 -225 -410 -316 -324 -292 -601
-691 -716 -1034 -65 -194 -85 -283 -111 -485 -14 -117 -15 -153 -4 -270 12
-140 18 -170 53 -280 107 -330 353 -574 692 -685 134 -43 173 -52 288 -65 208
-22 482 -2 673 50 22 6 51 14 65 16 14 3 34 9 45 13 11 5 52 18 90 30 187 60
511 230 749 395 117 81 384 285 466 355 80 69 314 281 355 321 17 17 33 30 36
30 9 0 -3 -49 -34 -140 -14 -41 -38 -118 -52 -170 -15 -52 -35 -126 -46 -165
-11 -38 -52 -166 -91 -282 l-72 -213 -40 -14 c-23 -7 -63 -19 -91 -25 -27 -7
-84 -27 -125 -46 -41 -19 -97 -41 -125 -50 -27 -9 -111 -45 -185 -79 -74 -35
-157 -73 -185 -86 -27 -12 -90 -45 -140 -73 -49 -27 -110 -61 -135 -75 -249
-137 -490 -320 -793 -605 -315 -295 -525 -605 -594 -876 -21 -86 -22 -230 0
-299 64 -206 239 -331 467 -332 174 0 427 89 630 223 144 94 171 115 288 214
276 235 527 543 785 963 55 90 120 210 223 410 29 56 184 389 184 396 0 14
117 264 136 290 18 24 41 36 121 62 171 55 271 75 403 81 116 6 125 7 125 26
0 13 -14 28 -41 42 -45 25 -142 32 -239 18 -66 -9 -240 -52 -287 -70 -32 -12
-38 -13 -38 -1 0 18 35 128 54 169 22 47 104 274 121 332 13 48 30 96 108 315
87 240 158 396 223 487 97 135 279 234 407 219 36 -4 47 -2 47 9 0 20 -88 69
-148 83 -111 25 -314 9 -423 -34 -108 -42 -220 -144 -288 -261 -19 -32 -50
-83 -70 -113 -37 -57 -388 -412 -476 -481 -249 -196 -388 -296 -471 -340 -33
-17 -66 -37 -74 -44 -13 -12 -116 -62 -225 -110 -22 -9 -62 -27 -90 -40 -110
-50 -330 -123 -435 -144 -25 -5 -103 -21 -173 -35 -267 -55 -602 -72 -793 -41
-408 66 -672 319 -705 675 -23 258 40 494 209 785 167 287 460 594 825 864
172 126 494 335 642 416 39 21 106 57 150 82 44 24 105 55 135 69 30 14 84 40
120 58 115 59 322 135 555 204 247 73 446 100 604 83 165 -19 314 -83 402
-172 71 -71 100 -131 107 -217 6 -88 24 -124 59 -120 58 7 95 110 74 210 -37
186 -232 325 -556 397 -135 30 -407 38 -640 19z m309 -3585 c-6 -35 -34 -114
-116 -328 -73 -188 -299 -630 -459 -897 -288 -481 -603 -811 -900 -945 -102
-46 -106 -47 -209 -47 -84 -1 -112 3 -140 18 -88 47 -155 124 -187 216 -15 42
-17 231 -3 274 80 251 169 413 355 646 329 411 781 742 1325 972 52 22 127 56
167 74 40 19 83 34 95 35 13 0 32 4 43 9 33 14 36 12 29 -27z"/>
<path d="M21540 12545 c-163 -45 -354 -177 -496 -343 -115 -134 -310 -432
-396 -607 -19 -38 -68 -135 -108 -215 -67 -134 -220 -464 -220 -475 0 -3 -18
-44 -39 -92 -21 -49 -62 -144 -91 -213 -29 -69 -62 -143 -73 -165 -11 -22 -30
-67 -42 -100 -27 -76 -185 -317 -291 -445 -365 -442 -537 -616 -774 -785 -118
-83 -224 -137 -271 -139 -41 -1 -108 39 -134 78 -24 36 -45 123 -45 183 0 125
86 436 173 623 28 59 147 267 186 324 17 24 31 51 31 60 0 9 -40 35 -102 66
-118 59 -134 60 -208 5 -26 -19 -167 -163 -313 -318 -344 -368 -671 -677 -856
-810 -36 -26 -85 -61 -109 -78 -69 -49 -194 -109 -229 -109 -70 0 -124 38
-154 108 -26 60 -24 105 11 214 72 221 319 549 586 779 188 161 452 325 613
380 30 11 59 23 65 28 44 34 266 75 371 68 90 -6 126 -19 217 -77 35 -22 71
-40 81 -40 27 0 21 45 -12 93 -149 214 -415 253 -801 116 -100 -35 -162 -60
-240 -97 -57 -27 -266 -148 -316 -184 -26 -18 -72 -51 -104 -73 -171 -121
-408 -335 -511 -462 -163 -201 -232 -352 -231 -506 0 -80 3 -93 38 -163 107
-217 324 -328 543 -278 97 22 245 100 376 198 109 81 325 279 401 366 26 30
86 96 133 145 47 50 105 113 129 140 l43 50 -7 -44 c-3 -24 -21 -89 -39 -145
-60 -183 -69 -231 -69 -371 -1 -182 33 -280 125 -359 74 -63 119 -78 223 -73
170 7 359 95 558 259 223 184 419 382 610 618 120 148 136 165 143 159 3 -4
-5 -35 -18 -70 -76 -202 -99 -501 -48 -630 50 -130 169 -179 226 -92 16 24 19
44 17 138 -3 99 0 116 24 175 73 181 266 441 490 661 120 118 277 247 341 280
16 7 52 29 81 47 115 72 293 142 362 142 35 0 48 -7 88 -44 46 -44 47 -45 50
-118 3 -58 -2 -92 -23 -163 -15 -49 -30 -103 -34 -120 -9 -33 -83 -184 -111
-224 -10 -14 -40 -60 -66 -101 -60 -91 -264 -304 -392 -408 -246 -200 -541
-375 -754 -446 -143 -47 -224 -60 -390 -62 -86 -1 -162 -5 -168 -9 -16 -10 7
-35 50 -53 64 -27 242 -41 385 -31 72 5 137 12 145 15 8 3 40 10 70 15 30 5
78 15 105 24 28 8 79 23 115 34 113 34 303 125 445 215 427 269 786 649 915
971 20 50 24 77 24 170 1 102 -1 115 -30 175 -41 86 -140 179 -241 227 -135
65 -294 55 -487 -28 -275 -120 -490 -296 -805 -664 -47 -56 -102 -124 -121
-153 -19 -28 -38 -52 -42 -52 -11 0 -10 58 2 94 37 117 52 164 60 181 4 11 14
36 21 55 7 19 29 71 49 115 41 89 55 103 225 230 414 308 1003 842 1250 1133
242 286 385 559 385 738 0 145 -57 227 -212 304 -83 41 -91 42 -195 46 -76 3
-124 0 -163 -11z m358 -175 c69 -69 60 -196 -27 -375 -82 -167 -182 -310 -392
-555 -116 -136 -424 -442 -533 -530 -38 -30 -96 -80 -130 -110 -56 -51 -301
-249 -389 -315 -21 -15 -40 -26 -42 -23 -25 24 279 637 440 888 25 38 45 73
45 76 0 11 197 294 279 399 207 269 443 484 616 561 52 23 100 18 133 -16z"/>
<path d="M4505 12514 c-145 -21 -204 -31 -305 -53 -52 -12 -128 -28 -168 -37
-41 -8 -133 -35 -205 -60 -73 -25 -174 -59 -226 -76 -51 -16 -114 -42 -140
-57 -25 -14 -82 -42 -126 -61 -265 -113 -493 -321 -574 -522 -17 -43 -23 -78
-23 -133 0 -101 24 -166 98 -265 53 -69 102 -113 189 -166 149 -92 291 -151
735 -304 566 -196 728 -266 894 -389 105 -78 149 -128 182 -209 41 -99 28
-197 -44 -338 -29 -57 -147 -181 -250 -262 -82 -65 -282 -190 -382 -239 -172
-84 -422 -187 -535 -219 -115 -33 -130 -38 -140 -44 -5 -4 -50 -17 -100 -29
-49 -12 -106 -26 -125 -31 -84 -22 -132 -29 -389 -60 -46 -5 -170 -10 -276
-10 -164 0 -207 3 -306 24 -273 58 -411 157 -465 335 -32 105 -9 208 79 371
44 80 72 115 177 221 170 171 361 296 597 390 128 51 168 63 375 110 27 6 69
10 95 9 75 -4 93 -1 93 14 0 7 -12 22 -27 32 -40 27 -264 24 -378 -4 -243 -62
-340 -97 -520 -189 -364 -187 -621 -432 -739 -703 -77 -178 -94 -320 -55 -460
38 -139 125 -248 248 -310 153 -76 403 -130 610 -130 117 0 395 28 496 50 22
4 67 14 100 20 177 34 445 110 550 154 22 10 60 24 85 33 25 8 91 37 148 64
57 27 105 49 107 49 13 0 195 91 295 148 136 76 338 209 430 281 90 72 261
242 317 315 73 96 140 247 148 332 22 228 -128 448 -450 656 -55 36 -125 78
-155 93 -128 65 -442 198 -570 242 -25 8 -63 24 -85 34 -22 10 -112 45 -201
77 -88 33 -222 90 -297 126 -117 56 -146 75 -211 138 -70 67 -76 76 -76 113 0
49 13 69 99 159 104 107 341 251 558 337 43 17 92 37 108 44 64 29 343 106
495 136 244 50 509 63 652 34 131 -28 242 -96 278 -171 45 -92 9 -176 -147
-346 -51 -56 -93 -109 -93 -118 0 -10 7 -23 16 -31 26 -21 95 25 199 133 80
83 102 113 147 204 l53 107 0 102 c0 95 -2 104 -30 151 -44 71 -144 134 -265
165 -147 39 -401 49 -575 23z"/>
<path d="M25030 11465 c-14 -14 -49 -45 -80 -68 -170 -129 -370 -297 -370
-312 0 -16 58 -70 104 -95 54 -30 133 -37 173 -17 42 22 110 101 142 167 15
30 40 98 55 150 15 52 32 112 38 132 20 67 -16 92 -62 43z"/>
<path d="M6810 10730 c-19 -4 -69 -13 -110 -20 -119 -21 -394 -128 -510 -199
-25 -15 -74 -45 -110 -66 -160 -96 -434 -308 -573 -444 -302 -294 -433 -583
-358 -789 39 -105 154 -232 261 -287 51 -26 180 -48 244 -41 61 6 162 38 227
71 46 24 222 146 284 196 111 90 317 300 524 532 52 58 98 104 102 101 4 -2
-8 -50 -27 -106 -31 -92 -44 -140 -74 -275 -16 -67 -12 -300 5 -357 64 -211
270 -301 492 -216 271 104 466 251 744 560 51 58 109 123 126 145 18 21 36 35
40 31 9 -8 -26 -109 -81 -231 -19 -44 -64 -163 -99 -265 -36 -102 -71 -199
-78 -217 -12 -28 -11 -34 6 -52 23 -27 38 -26 111 2 105 42 171 78 224 125 59
52 243 279 465 577 261 350 451 558 630 690 134 98 139 101 182 124 69 35 103
24 103 -32 0 -24 -55 -145 -111 -247 -24 -43 -133 -301 -174 -409 -170 -455
-134 -705 117 -801 141 -53 271 -34 478 70 206 104 564 437 790 735 81 106
130 186 130 210 0 47 -48 60 -74 21 -36 -56 -220 -261 -351 -391 -235 -235
-338 -319 -543 -442 -89 -54 -112 -63 -152 -63 -41 0 -53 5 -92 40 -28 24 -54
60 -68 92 -20 46 -22 62 -16 133 18 211 95 430 294 830 169 340 207 467 164
537 -32 51 -63 76 -112 89 -42 11 -51 9 -126 -20 -190 -74 -370 -210 -682
-519 -206 -203 -314 -319 -457 -487 -33 -38 -84 -97 -115 -130 -30 -34 -72
-82 -94 -109 -21 -26 -40 -45 -43 -42 -10 10 20 101 89 264 38 90 82 198 99
240 17 42 36 91 44 107 7 17 27 68 45 115 37 99 54 143 105 264 46 112 65 174
58 192 -15 39 -183 86 -249 70 -35 -9 -84 -55 -84 -79 0 -12 -29 -105 -64
-207 -177 -520 -201 -561 -510 -878 -176 -181 -335 -313 -516 -429 -86 -56
-130 -73 -185 -73 -40 0 -50 5 -94 48 -71 69 -89 131 -72 255 19 143 30 193
67 312 59 184 160 395 280 582 19 30 34 62 32 72 -3 19 -112 75 -179 92 -90
24 -112 8 -355 -253 -272 -292 -636 -653 -774 -769 -236 -197 -435 -319 -519
-319 -53 0 -124 63 -147 132 -14 44 -14 54 1 119 31 136 83 241 212 420 188
263 453 509 715 666 280 167 474 232 693 234 129 0 174 -12 252 -72 31 -24 59
-39 68 -35 24 9 18 59 -13 102 -63 86 -147 143 -249 170 -57 15 -204 17 -263
4z"/>
<path d="M14020 6050 c-60 -7 -137 -14 -460 -40 -63 -5 -191 -14 -285 -20 -93
-6 -224 -15 -290 -20 -66 -5 -187 -14 -270 -20 -186 -13 -369 -28 -500 -40
-114 -11 -304 -25 -550 -40 -93 -6 -208 -15 -255 -20 -47 -5 -188 -16 -315
-25 -126 -9 -331 -25 -455 -35 -219 -19 -354 -29 -650 -50 -80 -6 -206 -16
-280 -22 -98 -8 -1284 -13 -4379 -17 -3757 -5 -4245 -8 -4253 -21 -6 -9 -6
-25 1 -42 l11 -28 3962 0 c3329 0 4005 -3 4223 -15 326 -18 559 -33 700 -44
61 -5 209 -17 330 -25 121 -9 366 -28 545 -41 179 -14 426 -32 550 -40 124 -9
288 -22 365 -29 77 -8 205 -19 285 -26 80 -6 199 -15 265 -21 66 -5 170 -14
230 -19 61 -5 193 -14 295 -20 192 -11 382 -23 605 -40 72 -5 207 -14 300 -20
94 -6 199 -15 235 -20 36 -5 91 -12 123 -15 l58 -7 182 179 c100 98 195 193
211 211 l29 33 -149 141 c-82 78 -176 170 -210 205 -67 70 -64 69 -204 53z"/>
<path d="M15868 5863 l-201 -200 43 -58 c24 -32 86 -101 139 -155 53 -53 122
-123 154 -157 l57 -60 53 4 c28 2 104 8 167 13 63 5 178 14 255 20 77 5 203
14 280 20 137 10 214 15 665 46 124 8 268 19 320 25 52 5 158 14 235 19 240
17 384 28 560 44 94 9 249 20 345 26 96 5 225 14 285 20 61 5 171 14 245 19
195 15 476 39 700 61 107 10 276 23 375 29 99 6 205 14 235 17 30 3 1925 9
4210 12 l4155 7 3 29 c2 16 -2 34 -8 40 -8 8 -1119 13 -4233 17 -3835 5 -4242
7 -4437 22 -241 19 -422 32 -650 47 -85 6 -200 15 -255 20 -55 5 -188 16 -295
25 -107 8 -251 19 -320 25 -164 14 -469 37 -650 50 -80 6 -203 15 -275 20 -71
5 -168 12 -215 16 -47 3 -139 10 -205 15 -66 5 -185 14 -265 19 -80 5 -203 14
-275 20 -71 5 -191 14 -265 20 -74 5 -187 14 -250 20 -63 6 -182 14 -265 20
-82 5 -165 12 -183 16 -32 7 -38 2 -234 -193z"/>
<path d="M15040 5986 c-110 -31 -186 -91 -237 -188 -24 -47 -28 -64 -28 -143
0 -78 4 -97 28 -147 40 -81 107 -152 175 -184 46 -22 72 -27 137 -28 69 0 88
4 138 29 68 34 154 121 188 192 30 63 36 150 15 225 -37 126 -138 210 -291
244 -71 16 -68 16 -125 0z"/>
<path d="M23131 4511 c-47 -80 -207 -295 -245 -330 -14 -14 -26 -30 -26 -36 0
-19 107 -115 127 -115 30 0 373 368 373 401 0 10 -28 37 -62 62 -35 25 -72 54
-82 66 -11 11 -25 21 -31 21 -7 0 -31 -31 -54 -69z"/>
<path d="M15955 4452 c-3 -3 -5 -128 -5 -279 l0 -273 -22 0 c-13 0 -47 9 -76
20 -68 26 -151 26 -233 -1 -246 -80 -383 -261 -418 -556 -18 -148 19 -334 88
-441 45 -70 119 -137 188 -171 55 -28 72 -31 151 -31 81 0 96 3 148 31 101 52
129 82 210 215 7 11 15 16 18 13 4 -4 18 -51 32 -105 14 -59 32 -106 44 -118
18 -19 24 -19 91 -8 80 14 159 45 159 62 0 6 -14 31 -30 56 -17 24 -37 61 -44
82 -28 77 -36 281 -36 861 0 635 2 611 -58 611 -15 0 -66 9 -114 19 -48 10
-90 16 -93 13z m-56 -717 c16 -8 31 -25 34 -37 4 -13 9 -102 13 -199 8 -214
-2 -281 -60 -394 -48 -95 -102 -156 -161 -185 -40 -20 -46 -20 -73 -6 -120 62
-166 172 -166 396 -1 147 14 217 61 297 29 49 92 109 137 129 42 18 179 18
215 -1z"/>
<path d="M4373 4334 c-8 -20 4 -1571 12 -1584 9 -15 248 -13 267 3 13 10 14
26 6 112 -11 114 -3 494 11 508 5 5 25 4 48 -3 71 -22 233 -8 342 29 102 34
202 97 246 155 115 151 138 358 59 526 -43 90 -103 151 -203 204 -109 57 -178
66 -502 66 -246 0 -280 -2 -286 -16z m572 -218 c107 -48 165 -144 165 -272 0
-91 -27 -153 -91 -208 -54 -46 -125 -66 -234 -66 -135 0 -125 -24 -125 285 0
145 2 269 5 277 4 10 30 13 118 10 89 -3 122 -8 162 -26z"/>
<path d="M18410 3944 c-63 -11 -169 -50 -215 -79 -196 -125 -297 -344 -282
-611 10 -182 59 -306 159 -406 99 -98 190 -132 353 -132 101 -1 120 3 229 38
137 44 202 76 199 96 -3 29 -43 124 -58 140 -14 13 -20 13 -56 -8 -157 -90
-314 -95 -426 -12 -46 34 -98 109 -108 156 -10 52 8 60 137 67 112 5 123 8
263 66 57 23 178 122 212 173 46 68 58 107 58 188 -1 66 -5 83 -35 139 -39 72
-107 131 -188 160 -49 18 -194 33 -242 25z m87 -185 c68 -25 118 -106 110
-177 -6 -57 -29 -87 -104 -138 -95 -64 -264 -112 -298 -84 -28 24 -14 131 30
224 35 73 87 130 147 160 58 29 74 31 115 15z"/>
<path d="M7480 3925 c-143 -33 -212 -69 -297 -158 -96 -100 -132 -173 -158
-321 -44 -248 15 -500 144 -618 31 -28 84 -64 118 -81 53 -24 76 -29 150 -30
81 -2 93 1 153 31 82 42 111 69 171 160 26 40 51 73 56 72 9 0 20 -33 33 -95
23 -105 27 -122 35 -135 19 -31 227 17 242 55 2 7 -12 52 -32 100 -58 140 -63
181 -70 590 -3 203 -8 371 -11 374 -2 2 -28 8 -57 12 -68 10 -145 25 -232 44
-81 17 -167 18 -245 0z m245 -195 l30 -15 -1 -220 c-1 -243 -9 -294 -67 -413
-61 -126 -151 -196 -221 -172 -69 22 -133 117 -162 240 -21 86 -18 247 6 336
12 42 27 88 35 103 20 39 115 127 155 145 44 20 182 17 225 -4z"/>
<path d="M10328 3925 c-100 -28 -195 -101 -276 -210 -21 -29 -22 -29 -37 -11
-8 11 -27 58 -42 105 -34 110 -36 113 -93 99 -111 -27 -180 -50 -180 -59 0 -5
11 -31 24 -57 70 -141 84 -242 94 -702 l7 -345 119 -3 c72 -2 123 1 130 8 6 6
9 125 7 342 l-2 333 40 83 c80 163 222 260 301 205 32 -22 45 -38 72 -88 21
-38 22 -56 29 -385 4 -190 4 -373 1 -407 -7 -91 -4 -93 137 -93 64 0 121 4
126 8 7 4 8 166 5 467 -6 524 -5 514 -92 610 -69 76 -142 109 -243 112 -44 1
-101 -5 -127 -12z"/>
<path d="M12950 3925 c-62 -14 -168 -55 -202 -79 -63 -44 -146 -140 -185 -213
-57 -106 -77 -199 -77 -348 0 -195 54 -345 164 -455 65 -66 123 -95 215 -110
152 -24 308 58 391 207 20 35 39 63 43 63 8 0 21 -59 36 -155 4 -21 14 -52 22
-69 15 -28 16 -29 78 -23 34 3 88 17 119 31 63 28 64 30 26 106 -23 46 -46
120 -61 195 -8 37 -15 204 -18 430 l-6 370 -55 7 c-58 8 -137 22 -260 44 -90
16 -156 16 -230 -1z m235 -189 l40 -12 8 -74 c14 -129 1 -385 -24 -460 -33
-102 -66 -161 -122 -218 -64 -65 -109 -82 -159 -58 -106 51 -159 181 -160 396
-1 104 3 136 22 195 39 120 96 193 182 230 40 17 158 18 213 1z"/>
<path d="M25264 3915 c-45 -12 -109 -39 -142 -59 -125 -76 -232 -227 -262
-371 -7 -33 -16 -73 -21 -89 -20 -65 -2 -231 39 -363 25 -78 103 -196 156
-235 84 -62 132 -78 236 -78 95 0 96 0 170 44 86 51 113 77 164 164 21 34 41
62 45 62 4 0 15 -41 24 -91 9 -50 25 -105 35 -123 18 -30 21 -31 83 -30 68 1
156 33 166 62 4 8 -8 40 -24 71 -17 31 -36 81 -42 111 -6 30 -16 80 -21 110
-6 30 -14 216 -17 413 -5 314 -8 359 -22 366 -9 5 -57 11 -106 14 -50 4 -126
16 -170 27 -101 25 -188 24 -291 -5z m266 -181 c54 -22 60 -48 60 -269 0 -203
-7 -239 -66 -359 -58 -117 -145 -206 -202 -206 -33 0 -115 72 -146 130 -39 72
-55 153 -56 282 0 160 32 262 110 351 54 61 109 86 192 87 40 0 84 -7 108 -16z"/>
<path d="M22828 3909 c-8 -5 -7 -22 2 -55 10 -36 15 -170 19 -504 6 -494 3
-467 67 -547 47 -57 100 -76 201 -71 85 4 148 28 158 58 3 11 -3 37 -15 59
-16 32 -28 42 -58 51 -54 14 -79 45 -87 105 -3 28 -7 244 -8 480 l-2 430 -133
0 c-74 0 -138 -3 -144 -6z"/>
<path d="M21020 3901 c-88 -27 -167 -97 -210 -186 l-24 -50 -8 39 c-11 51 -62
158 -87 180 -20 18 -23 18 -103 -14 -130 -52 -121 -41 -88 -113 68 -144 80
-245 80 -669 l0 -348 129 0 129 0 4 348 c4 299 7 353 22 393 23 61 80 127 130
150 45 21 120 25 162 9 19 -8 29 -8 34 0 12 19 72 242 67 247 -21 20 -185 30
-237 14z"/>
<path d="M14045 1725 c-5 -2 -82 -9 -170 -15 -275 -19 -406 -29 -520 -40 -60
-6 -180 -15 -265 -21 -200 -13 -391 -26 -560 -39 -74 -5 -196 -15 -270 -20
-219 -16 -378 -29 -495 -40 -60 -5 -180 -14 -265 -20 -85 -5 -209 -14 -275
-20 -66 -5 -176 -14 -245 -20 -69 -5 -143 -12 -165 -15 -22 -3 -123 -10 -225
-15 -102 -6 -230 -15 -285 -20 -111 -11 -282 -23 -640 -47 -211 -14 -740 -17
-4403 -22 -3997 -6 -4164 -7 -4177 -24 -8 -11 -10 -28 -6 -43 l6 -25 4105 -3
c2555 -2 4181 -7 4305 -13 204 -11 501 -32 1010 -73 379 -31 386 -32 940 -70
536 -37 589 -41 805 -61 118 -10 285 -23 370 -29 85 -6 207 -15 270 -20 63 -5
228 -16 365 -24 138 -9 327 -21 420 -27 94 -6 204 -14 245 -19 41 -5 114 -12
162 -16 l86 -6 79 78 c44 44 137 134 206 201 70 67 127 126 127 130 0 4 -72
75 -161 157 -89 83 -179 171 -202 198 -40 48 -40 48 -101 47 -34 0 -65 -2 -71
-4z"/>
<path d="M15927 1593 c-75 -76 -161 -158 -191 -183 -30 -25 -57 -51 -60 -58
-9 -20 77 -124 234 -283 l145 -148 145 10 c80 5 206 14 280 19 74 5 212 14
305 20 94 6 285 19 425 30 140 12 325 25 410 31 85 5 232 16 325 25 205 18
385 31 600 44 88 5 214 14 280 20 66 6 181 15 255 20 223 16 377 28 530 44 80
8 210 19 290 26 80 6 197 15 260 20 561 45 950 48 4415 43 1760 -3 3509 -2
3888 2 l687 7 0 34 c0 18 -6 36 -12 41 -7 4 -1889 11 -4183 14 -2913 4 -4215
9 -4320 17 -82 6 -231 16 -330 22 -99 6 -263 17 -365 25 -102 8 -275 22 -385
30 -110 8 -249 19 -310 25 -217 18 -483 40 -625 50 -80 6 -208 15 -285 20 -77
6 -198 15 -270 20 -71 5 -195 14 -275 20 -80 6 -201 15 -270 20 -69 5 -188 14
-265 20 -134 10 -233 19 -477 40 -206 18 -372 29 -498 35 -69 3 -146 8 -171
11 l-45 5 -137 -138z"/>
<path d="M14999 1647 c-98 -41 -147 -86 -197 -181 -24 -45 -27 -62 -27 -141 1
-78 4 -97 29 -147 66 -132 164 -199 301 -206 96 -5 138 10 222 77 125 101 168
239 122 395 -15 54 -116 153 -194 191 -83 41 -177 45 -256 12z"/>
</g>
</svg>
